<?xml version="1.0" standalone="no"?>
<!DOCTYPE svg PUBLIC "-//W3C//DTD SVG 20010904//EN"
 "http://www.w3.org/TR/2001/REC-SVG-20010904/DTD/svg10.dtd">
<svg version="1.0" xmlns="http://www.w3.org/2000/svg"
 width="300.000000pt" height="300.000000pt" viewBox="0 0 300.000000 300.000000"
 preserveAspectRatio="xMidYMid meet">
<metadata>
Created by potrace 1.14, written by Peter Selinger 2001-2017
</metadata>
<g transform="translate(0.000000,300.000000) scale(0.100000,-0.100000)"
fill="#000000" stroke="none">
<path d="M316 2398 c-14 -20 -16 -101 -16 -683 0 -582 2 -663 16 -683 15 -22
16 -22 329 -22 l315 0 547 -310 c301 -170 555 -310 565 -310 10 0 26 9 36 20
34 40 662 1131 662 1150 0 28 -22 44 -168 126 -70 39 -299 167 -509 284 l-383
213 0 89 c0 85 -9 124 -34 140 -6 4 -311 8 -678 8 l-667 0 -15 -22z m1274
-688 l0 -590 -585 0 -585 0 0 590 0 590 585 0 585 0 0 -590z m577 89 c246
-137 452 -254 457 -259 7 -7 -493 -885 -565 -990 l-16 -24 -421 240 -421 239
239 5 c131 3 240 7 243 10 19 22 27 61 27 139 l0 90 26 -24 c32 -30 86 -46
125 -38 16 3 45 20 66 38 37 32 38 35 38 98 0 59 -3 69 -29 96 -58 60 -139 63
-199 7 l-27 -25 0 103 0 104 34 6 c85 16 138 108 107 188 -15 39 -62 78 -102
84 l-39 7 0 78 c0 44 2 79 4 79 2 0 206 -113 453 -251z"/>
<path d="M656 2160 c-72 -22 -115 -99 -96 -170 14 -53 46 -85 99 -101 37 -11
48 -10 88 7 61 25 98 90 87 150 -8 45 -70 114 -102 114 -11 0 -26 2 -34 4 -7
2 -26 0 -42 -4z"/>
<path d="M1265 2155 c-100 -36 -125 -154 -49 -230 58 -58 140 -56 199 5 41 42
47 121 13 170 -39 57 -100 78 -163 55z"/>
<path d="M965 1849 c-39 -11 -74 -43 -91 -85 -20 -47 -18 -71 11 -120 50 -86
157 -94 224 -19 27 31 31 43 31 92 0 51 -3 58 -39 94 -21 22 -48 39 -59 39
-11 0 -26 2 -34 4 -7 2 -27 0 -43 -5z"/>
<path d="M660 1540 c-45 -11 -95 -66 -104 -114 -11 -58 24 -123 82 -148 56
-25 100 -18 147 23 43 38 61 95 45 144 -12 36 -71 95 -95 95 -7 0 -19 2 -27 4
-7 2 -29 0 -48 -4z"/>
<path d="M1265 1535 c-111 -39 -127 -185 -27 -251 35 -23 111 -23 146 0 63 41
84 131 46 193 -36 59 -98 81 -165 58z"/>
<path d="M1856 1009 c-81 -71 -60 -197 39 -235 59 -22 106 -12 149 30 61 62
55 151 -13 209 -27 22 -42 27 -86 27 -46 0 -59 -5 -89 -31z"/>
</g>
</svg>
